Coordinates
version=1
nRows=29
nColumns=24
inDegrees=yes

Units are S.I. units (second, meters, Newtons, ...)
Angles are in degrees.

endheader
time	pelvis_tilt	pelvis_list	pelvis_rotation	pelvis_tx	pelvis_ty	pelvis_tz	hip_flexion_r	hip_adduction_r	hip_rotation_r	knee_angle_r	ankle_angle_r	subtalar_angle_r	mtp_angle_r	hip_flexion_l	hip_adduction_l	hip_rotation_l	knee_angle_l	ankle_angle_l	subtalar_angle_l	mtp_angle_l	lumbar_extension	lumbar_bending	lumbar_rotation
      1.11700000	      3.80137823	      2.75175404	     -2.54163028	      0.13828422	      1.07050530	      0.30483539	     17.81833045	     -2.46295467	      0.58592166	    -66.09779937	      3.72396533	    -12.38254249	      3.75639986	      6.79123617	      6.32541048	     -4.00878087	    -13.81987171	      6.27435367	      0.90102520	      2.08932939	     -2.95522030	     -0.07579682	     -0.27434324
      1.12116667	      3.77005325	      2.68535503	     -2.58847097	      0.14346938	      1.07113078	      0.30474406	     18.31778893	     -2.27748967	      0.79413611	    -65.43507290	      4.15169306	    -12.54380579	      3.71073945	      6.42695231	      6.28997312	     -3.97341335	    -13.65758926	      6.41197006	      0.85698370	      2.08250030	     -2.95992643	      0.00010848	     -0.28146052
      1.12533333	      3.74135035	      2.61835064	     -2.63997310	      0.14865307	      1.07174247	      0.30466183	     18.78999574	     -2.08931760	      1.00017459	    -64.69480967	      4.55748888	    -12.69466344	      3.66470326	      6.05424485	      6.25505703	     -3.93803682	    -13.48109037	      6.54578711	      0.80372158	      2.07447308	     -2.96617074	      0.07559917	     -0.28615243
      1.12950000	      3.70107634	      2.55765711	     -2.69301726	      0.15385205	      1.07232245	      0.30460026	     19.25089032	     -1.90673367	      1.20235532	    -63.88246780	      4.94271684	    -12.83565701	      3.61420997	      5.68976343	      6.22502265	     -3.90324368	    -13.29702878	      6.67527142	      0.74251842	      2.06432628	     -2.96366084	      0.14263304	     -0.28580848
      1.13366667	      3.66392910	      2.49177719	     -2.74286615	      0.15905815	      1.07289548	      0.30454520	     19.67888371	     -1.71839588	      1.39578693	    -62.98940423	      5.27676802	    -12.96331173	      3.56144177	      5.31665083	      6.18920605	     -3.87027487	    -13.10273919	      6.79202356	      0.67788224	      2.05255667	     -2.96890301	      0.21331365	     -0.28501728
      1.13783333	      3.62191229	      2.42849755	     -2.79868933	      0.16428300	      1.07343359	      0.30448451	     20.08663222	     -1.53360901	      1.58646210	    -62.02284614	      5.56640076	    -13.08711769	      3.51360513	      4.94232316	      6.15900050	     -3.82601309	    -12.89313900	      6.90057792	      0.61232154	      2.04114754	     -2.95735056	      0.28305750	     -0.28588127
      1.14200000	      3.57938475	      2.36501336	     -2.85218669	      0.16949782	      1.07394644	      0.30445677	     20.46746583	     -1.34712267	      1.77291615	    -60.98236397	      5.83871381	    -13.22562427	      3.45840451	      4.56774823	      6.12499616	     -3.78468651	    -12.68322679	      7.00973929	      0.53245522	      2.02696344	     -2.94296860	      0.35527281	     -0.28483758
      1.14616667	      3.53755948	      2.31159536	     -2.90276363	      0.17475986	      1.07443581	      0.30440263	     20.81733706	     -1.17830547	      1.94172072	    -59.87086123	      6.05477986	    -13.35676657	      3.40902673	      4.18531324	      6.10783307	     -3.73801699	    -12.45732469	      7.10564530	      0.45788492	      2.01372253	     -2.92706257	      0.40901492	     -0.28483513
      1.15033333	      3.44016266	      2.26926461	     -2.93930325	      0.17990361	      1.07477650	      0.30442750	     21.21480825	     -1.01125067	      2.11573868	    -58.70390541	      6.19700322	    -13.43176364	      3.38699964	      3.88345739	      6.08819603	     -3.67810113	    -12.26508473	      7.16282236	      0.41644693	      2.00782065	     -2.99161341	      0.39966602	     -0.28869517
      1.15450000	      3.43180918	      2.20216379	     -2.99947308	      0.18532673	      1.07530116	      0.30437185	     21.45089360	     -0.83520828	      2.26211933	    -57.42985865	      6.37705389	    -13.63210983	      3.33445716	      3.43766661	      6.06070321	     -3.64914266	    -11.99934061	      7.28273171	      0.30166091	      1.99285345	     -2.84608272	      0.51990063	     -0.29320305
      1.15866667	      3.39149466	      2.14541976	     -3.03361334	      0.19064033	      1.07571982	      0.30436274	     21.70290472	     -0.66810781	      2.39752497	    -56.09863000	      6.46944250	    -13.85425622	      3.26931973	      3.04532703	      6.03655211	     -3.58772925	    -11.76503936	      7.37396021	      0.18748158	      1.97341435	     -2.82542947	      0.59923382	     -0.30028624
      1.16283333	      3.36056727	      2.08825848	     -3.06860292	      0.19596312	      1.07611546	      0.30434426	     21.91589519	     -0.50602957	      2.51748324	    -54.69537308	      6.50001675	    -14.08491527	      3.20037083	      2.64035732	      6.01476094	     -3.52108340	    -11.52308421	      7.45169891	      0.07705572	      1.95223969	     -2.79754383	      0.65999094	     -0.30832983
      1.16700000	      3.31702508	      2.03764903	     -3.09950293	      0.20131346	      1.07645032	      0.30434558	     22.11320024	     -0.35293611	      2.62633738	    -53.23113013	      6.48784535	    -14.32377303	      3.13117693	      2.24755793	      5.99822725	     -3.45016846	    -11.27915814	      7.52278023	     -0.03376134	      1.93062075	     -2.76518154	      0.70743555	     -0.31912508
      1.17116667	      3.27517768	      1.98577370	     -3.11899551	      0.20667368	      1.07676224	      0.30433090	     22.27607775	     -0.20666567	      2.71509002	    -51.69583122	      6.41545841	    -14.60327705	      3.05315605	      1.85382178	      5.98013015	     -3.37578448	    -11.03722824	      7.58871409	     -0.15223359	      1.90585371	     -2.73149823	      0.76520254	     -0.33782319
      1.17533333	      3.22265793	      1.93795740	     -3.13192933	      0.21205426	      1.07702030	      0.30433283	     22.41995546	     -0.06838823	      2.78730827	    -50.10083246	      6.30804318	    -14.88690819	      2.97551221	      1.47226710	      5.96627823	     -3.29200812	    -10.79862749	      7.65079482	     -0.26883357	      1.88087613	     -2.68536946	      0.80863195	     -0.35901679
      1.17950000	      3.26258302	      1.87078076	     -3.07236199	      0.21730484	      1.07739139	      0.30424891	     22.42877981	      0.05717556	      2.76337431	    -48.41176323	      5.86724465	    -15.61309998	      2.72699532	      1.00389286	      5.93581562	     -3.10785242	    -10.57726935	      7.67535086	     -0.47815538	      1.79684589	     -2.89589336	      0.89538504	     -0.46299585
      1.18366667	      3.17702557	      1.85054667	     -3.12762864	      0.22274577	      1.07749655	      0.30432800	     22.56179693	      0.17710125	      2.86673460	    -46.73406885	      5.86165457	    -15.70869824	      2.66771165	      0.65456541	      5.94899838	     -3.07892822	    -10.33347946	      7.74039749	     -0.54577474	      1.77687913	     -2.74747777	      0.87549720	     -0.47081387
      1.18783333	      3.11315753	      1.79547893	     -3.10298788	      0.22820177	      1.07764170	      0.30428768	     22.61921981	      0.29857282	      2.86578959	    -44.94651450	      5.48949583	    -16.14456064	      2.50121302	      0.28387362	      5.92652769	     -2.93810146	    -10.10205913	      7.81526818	     -0.69005020	      1.72009938	     -2.73776002	      1.06540358	     -0.55677116
      1.19200000	      3.02935190	      1.78963740	     -3.10466359	      0.23356780	      1.07766270	      0.30440890	     22.69502069	      0.38975996	      2.92189693	    -43.16975161	      5.45994258	    -16.26479943	      2.44866665	     -0.04087579	      5.94350460	     -2.90183166	     -9.91233711	      7.86982035	     -0.76463486	      1.70197068	     -2.60166853	      0.91168775	     -0.54451426
      1.19616667	      2.98334462	      1.73217053	     -3.06165560	      0.23912370	      1.07777122	      0.30429228	     22.67080777	      0.48846113	      2.84109545	    -41.28005145	      4.93675278	    -16.77845181	      2.27224106	     -0.44110729	      5.92605695	     -2.72185190	     -9.66369852	      7.94942688	     -0.92612825	      1.64000291	     -2.60055187	      1.13518586	     -0.66303291
      1.20033333	      2.89671197	      1.74030357	     -3.06277036	      0.24456146	      1.07769987	      0.30438196	     22.69802333	      0.55153262	      2.83495013	    -39.42979069	      4.88538229	    -16.89125612	      2.21568996	     -0.76273070	      5.96217002	     -2.70320830	     -9.47122592	      8.00845750	     -1.00566455	      1.61943382	     -2.44423558	      0.95000212	     -0.65205117
      1.20450000	      2.80601961	      1.71897835	     -3.06000066	      0.25016094	      1.07762228	      0.30441739	     22.68556389	      0.63322616	      2.78844366	    -37.51326199	      4.66495975	    -17.04172996	      2.14833621	     -1.10234636	      5.97053487	     -2.63641797	     -9.24940383	      8.09143966	     -1.10312788	      1.59529822	     -2.27970545	      0.95057145	     -0.67698784
      1.20866667	      2.80454603	      1.67877056	     -2.91529455	      0.25554966	      1.07765660	      0.30426781	     22.54123247	      0.67685309	      2.59235588	    -35.51258589	      3.98979531	    -17.68920842	      1.89540310	     -1.50683936	      5.95757593	     -2.37913211	     -9.08531013	      8.17234649	     -1.29023973	      1.49691478	     -2.43395711	      1.05835858	     -0.88524691
      1.21283333	      2.68393256	      1.70511411	     -2.96230980	      0.26114662	      1.07739507	      0.30441268	     22.53965379	      0.72775901	      2.57328167	    -33.59698378	      3.94898962	    -17.67497048	      1.84629383	     -1.80378105	      6.01312972	     -2.37399858	     -8.87749451	      8.24194038	     -1.34953918	      1.47698801	     -2.23296877	      0.93682825	     -0.88007465
      1.21700000	      2.60787382	      1.70371345	     -2.89485086	      0.26667518	      1.07719830	      0.30441854	     22.44067623	      0.76324823	      2.48754597	    -31.60112454	      3.63870551	    -17.70341902	      1.75346054	     -2.12516488	      6.03296018	     -2.26289196	     -8.73669677	      8.34795147	     -1.42939268	      1.43893522	     -2.06786462	      1.01927379	     -0.93654973
      1.22116667	      2.49965280	      1.71754039	     -2.87461373	      0.27232164	      1.07690531	      0.30446927	     22.37242980	      0.79488076	      2.33294681	    -29.63713567	      3.46675370	    -17.69706961	      1.69253945	     -2.42368534	      6.07196047	     -2.21515772	     -8.56200511	      8.44353567	     -1.50443829	      1.41282003	     -1.91623035	      0.91324823	     -0.94948121
      1.22533333	      2.39546074	      1.72687794	     -2.82853232	      0.27798735	      1.07658068	      0.30447866	     22.27476605	      0.82045208	      2.16204281	    -27.65704483	      3.22153285	    -17.64543657	      1.62709343	     -2.72112575	      6.10344432	     -2.12182342	     -8.40783459	      8.55527452	     -1.57118730	      1.38376909	     -1.76196927	      0.89906777	     -0.98688175
      1.22950000	      2.36590862	      1.72592722	     -2.66240774	      0.28350038	      1.07635332	      0.30428748	     22.07406507	      0.80282503	      1.85526237	    -25.65399959	      2.78788019	    -17.65509561	      1.42041336	     -3.07270154	      6.12343980	     -1.85807114	     -8.30750178	      8.71401816	     -1.67786340	      1.27994779	     -1.85503292	      0.97890749	     -1.21894815
      1.23366667	      2.24882928	      1.74903462	     -2.68528392	      0.28927733	      1.07591960	      0.30442836	     21.97369579	      0.84271594	      1.69820690	    -23.72643124	      2.69820347	    -17.46198330	      1.35805867	     -3.35969904	      6.16668824	     -1.85202972	     -8.15079357	      8.80536370	     -1.72699868	      1.24581430	     -1.62575903	      0.87062841	     -1.23367084
